<svg xmlns="http://www.w3.org/2000/svg" width="494" height="423" fill="none" xmlns:v="https://vecta.io/nano"><style><![CDATA[.B{fill:#fff}.C{fill:#95abbc}.D{stroke-width:13.393}.E{fill:#fc5b00}.F{fill:#ecaa00}.G{fill:#009d10}.H{fill:#0dbbfc}.I{color-interpolation-filters:sRGB}.J{flood-opacity:0}]]></style><g clip-path="url(#F)"><g filter="url(#C)"><rect x="232.041" y="257.665" width="261.959" height="165.335" rx="14.132" fill-opacity=".2" class="B"/><rect x="458.041" y="325.533" width="8" height="72" rx="4" transform="rotate(90 458.041 325.533)" class="C"/><rect x="454.041" y="347.665" width="8" height="68" rx="4" transform="rotate(90 454.041 347.665)" class="C"/><rect x="462.041" y="369.797" width="8" height="76" rx="4" transform="rotate(90 462.041 369.797)" class="C"/><g clip-path="url(#G)"><path d="M346.686 351.295c0 22.051-17.832 39.902-39.798 39.902s-39.798-17.851-39.798-39.902 17.832-39.902 39.798-39.902 39.798 17.85 39.798 39.902z" stroke="#0a2640" class="D"/><mask id="A" maskUnits="userSpaceOnUse" x="232" y="287" width="74" height="122" mask-type="alpha"><path d="M305.405 346.998l-18.136-59.157-54.904 69.732 29.183 50.895 43.857-61.47z" fill="#c4c4c4"/></mask><g mask="url(#A)" class="D"><path d="M346.687 351.294c0 22.051-17.832 39.902-39.798 39.902s-39.798-17.851-39.798-39.902 17.832-39.902 39.798-39.902 39.798 17.851 39.798 39.902z" stroke="#0dbbfc"/></g><mask id="B" maskUnits="userSpaceOnUse" x="281" y="282" width="91" height="85" mask-type="alpha"><path d="M311.544 352.182l59.996 14.691-31.705-82.96-58.563-.953 30.272 69.222z" fill="#c4c4c4"/></mask><g mask="url(#B)" class="D"><path d="M286.489 385.535c-18.892-11.286-25.093-35.772-13.846-54.693s35.678-25.11 54.571-13.824 25.092 35.772 13.846 54.693-35.679 25.109-54.571 13.824z" stroke="#69e6a6"/></g></g></g><ellipse cx="252.942" cy="275" rx="4.8" ry="5" class="E"/><ellipse cx="272.142" cy="275" rx="4.8" ry="5" class="F"/><ellipse cx="291.342" cy="275" rx="4.8" ry="5" class="G"/><g filter="url(#D)"><g clip-path="url(#H)"><rect x=".142" width="493.858" height="231.898" rx="15.031" fill-opacity=".18" class="B"/><rect x="82.922" y="68.181" width="11.777" height="54.174" rx="5.888" transform="rotate(90 82.922 68.181)" class="C"/><rect x="367.207" y="68.109" width="11.92" height="269.981" rx="5.96" transform="rotate(90 367.207 68.109)" fill="#8fb6d5"/><path d="M384.909 70.306c.776 0 1.391.18 1.845.541s.681.859.681 1.496a1.86 1.86 0 0 1-.39 1.147c-.26.345-.675.66-1.245.943.69.33 1.181.677 1.472 1.042s.437.78.437 1.257c0 .706-.247 1.271-.739 1.694s-1.168.629-2.026.629c-.908 0-1.606-.198-2.095-.594s-.733-.964-.733-1.694c0-.974.593-1.733 1.781-2.276-.536-.303-.92-.629-1.153-.978s-.349-.747-.349-1.181c0-.617.227-1.108.681-1.472s1.069-.553 1.833-.553zm-1.839 6.484c0 .466.161.828.483 1.088s.782.39 1.368.39c.578 0 1.028-.136 1.35-.407s.483-.644.483-1.118c0-.376-.151-.71-.454-1.001s-.83-.58-1.583-.856c-.578.248-.997.524-1.257.827s-.39.658-.39 1.077zm1.828-5.698c-.485 0-.866.116-1.141.349s-.413.543-.413.931a1.33 1.33 0 0 0 .343.92c.229.256.652.512 1.269.768.555-.233.947-.483 1.176-.751s.349-.58.349-.937c0-.392-.142-.702-.425-.931s-.666-.349-1.158-.349zm9.655 3.579c0 1.471-.233 2.569-.698 3.294s-1.17 1.088-2.124 1.088c-.916 0-1.613-.371-2.09-1.112s-.716-1.835-.716-3.271c0-1.482.231-2.582.693-3.3s1.166-1.077 2.113-1.077c.923 0 1.623.374 2.101 1.123s.721 1.833.721 3.253zm-4.65 0c0 1.238.145 2.14.436 2.706a1.46 1.46 0 0 0 1.392.844 1.45 1.45 0 0 0 1.396-.856c.291-.574.437-1.472.437-2.695s-.146-2.117-.437-2.683a1.45 1.45 0 0 0-1.396-.855 1.46 1.46 0 0 0-1.392.844c-.291.559-.436 1.457-.436 2.695zm6.658-1.705c0 .66.072 1.154.216 1.484s.376.495.698.495c.636 0 .955-.66.955-1.979 0-1.311-.319-1.967-.955-1.967-.322 0-.555.163-.698.489s-.216.819-.216 1.478zm2.666 0c0 .885-.15 1.554-.448 2.008s-.73.675-1.304.675c-.543 0-.966-.231-1.269-.693s-.448-1.125-.448-1.99c0-.881.144-1.544.431-1.99s.72-.669 1.286-.669a1.46 1.46 0 0 1 1.298.693c.303.462.454 1.117.454 1.967zm2.456 3.411c0 .663.072 1.16.215 1.49s.379.489.705.489.566-.161.721-.483.233-.825.233-1.496c0-.663-.078-1.154-.233-1.472s-.396-.483-.721-.483-.561.161-.705.483-.215.809-.215 1.472zm2.671 0c0 .881-.149 1.548-.448 2.002s-.729.675-1.303.675a1.43 1.43 0 0 1-1.275-.693c-.295-.462-.442-1.123-.442-1.985 0-.881.143-1.544.43-1.99s.72-.669 1.287-.669a1.46 1.46 0 0 1 1.286.687c.31.454.465 1.112.465 1.973zm-1.501-5.948l-4.72 8.509h-.856l4.72-8.509h.856z" class="B"/><rect x="82.922" y="107.217" width="11.777" height="54.174" rx="5.888" transform="rotate(90 82.922 107.217)" class="C"/><rect x="177.088" y="107.444" width="11.324" height="79.862" rx="5.662" transform="rotate(90 177.088 107.444)" class="H"/><path d="M197.246 110.765c0 .543-.153.988-.459 1.333s-.734.576-1.292.693v.046c.683.086 1.189.303 1.519.652s.494.807.494 1.374c0 .811-.281 1.435-.844 1.874s-1.361.652-2.397.652c-.451 0-.864-.035-1.24-.105s-.735-.185-1.088-.355v-.92c.368.183.76.322 1.175.419s.815.14 1.187.14c1.471 0 2.206-.576 2.206-1.729 0-1.032-.811-1.548-2.432-1.548h-.839v-.832h.85c.664 0 1.189-.146 1.577-.437s.582-.702.582-1.222c0-.415-.143-.741-.43-.978s-.67-.355-1.158-.355a3.58 3.58 0 0 0-1.054.152c-.33.101-.706.287-1.129.558l-.489-.651a4.04 4.04 0 0 1 1.205-.647c.458-.159.939-.238 1.443-.238.827 0 1.469.19 1.927.57s.686.895.686 1.554zm7.188 2.241c0 1.471-.232 2.569-.698 3.294s-1.17 1.089-2.124 1.089c-.916 0-1.613-.371-2.09-1.112s-.716-1.835-.716-3.271c0-1.482.231-2.582.693-3.3s1.166-1.077 2.113-1.077c.923 0 1.623.375 2.101 1.124s.721 1.833.721 3.253zm-4.65 0c0 1.238.146 2.14.437 2.706s.754.844 1.391.844a1.45 1.45 0 0 0 1.396-.855c.291-.575.437-1.473.437-2.695s-.146-2.117-.437-2.683-.752-.856-1.396-.856c-.637 0-1.1.282-1.391.844s-.437 1.457-.437 2.695zm6.658-1.705c0 .659.072 1.154.216 1.484s.376.495.698.495c.636 0 .955-.66.955-1.979 0-1.312-.319-1.968-.955-1.968-.322 0-.555.163-.698.489s-.216.819-.216 1.479zm2.666 0c0 .884-.149 1.554-.448 2.008s-.73.675-1.304.675c-.543 0-.966-.231-1.269-.693s-.448-1.125-.448-1.99c0-.881.144-1.545.431-1.991s.72-.669 1.286-.669a1.46 1.46 0 0 1 1.298.692c.303.462.454 1.118.454 1.968zm2.456 3.41c0 .664.072 1.16.215 1.49s.379.489.705.489.566-.161.721-.483.233-.824.233-1.496c0-.663-.077-1.154-.233-1.472s-.395-.483-.721-.483-.561.161-.705.483-.215.809-.215 1.472zm2.672 0c0 .881-.15 1.548-.449 2.002s-.729.676-1.303.676a1.43 1.43 0 0 1-1.275-.693c-.295-.462-.442-1.123-.442-1.985 0-.88.143-1.544.43-1.99s.72-.67 1.287-.67a1.46 1.46 0 0 1 1.286.687c.31.454.466 1.112.466 1.973zm-1.502-5.948l-4.72 8.509h-.856l4.72-8.509h.856z" class="B"/><rect x="82.922" y="145.956" width="11.777" height="54.174" rx="5.888" transform="rotate(90 82.922 145.956)" class="C"/><rect x="414.885" y="145.885" width="11.92" height="317.66" rx="5.96" transform="rotate(90 414.885 145.885)" class="B"/><path d="M433.35 156.011h-.942v-6.064l.046-1.432-.273.256-1.386 1.135-.512-.664 2.253-1.74h.814v8.509zm8.882-4.266c0 1.471-.233 2.569-.698 3.294s-1.17 1.089-2.125 1.089c-.915 0-1.612-.371-2.089-1.112s-.716-1.835-.716-3.271c0-1.482.231-2.582.693-3.3s1.166-1.077 2.112-1.077c.924 0 1.624.375 2.101 1.123s.722 1.834.722 3.254zm-4.65 0c0 1.238.145 2.14.436 2.706s.755.844 1.391.844c.644 0 1.11-.285 1.397-.855s.437-1.473.437-2.695-.146-2.117-.437-2.683c-.287-.571-.753-.856-1.397-.856a1.46 1.46 0 0 0-1.391.844c-.291.559-.436 1.457-.436 2.695zm11.471 0c0 1.471-.233 2.569-.698 3.294s-1.17 1.089-2.124 1.089c-.916 0-1.613-.371-2.09-1.112s-.716-1.835-.716-3.271c0-1.482.231-2.582.693-3.3s1.166-1.077 2.113-1.077c.923 0 1.623.375 2.101 1.123s.721 1.834.721 3.254zm-4.65 0c0 1.238.145 2.14.436 2.706s.755.844 1.392.844a1.45 1.45 0 0 0 1.396-.855c.291-.575.437-1.473.437-2.695s-.146-2.117-.437-2.683a1.45 1.45 0 0 0-1.396-.856 1.46 1.46 0 0 0-1.392.844c-.291.559-.436 1.457-.436 2.695zm6.658-1.705c0 .659.072 1.154.216 1.484s.376.495.698.495c.636 0 .955-.66.955-1.979 0-1.312-.319-1.968-.955-1.968-.322 0-.555.163-.698.489s-.216.819-.216 1.479zm2.666 0c0 .884-.15 1.554-.448 2.008s-.73.675-1.304.675c-.543 0-.966-.231-1.269-.693s-.448-1.125-.448-1.99c0-.881.144-1.545.431-1.991s.72-.669 1.286-.669a1.46 1.46 0 0 1 1.298.692c.303.462.454 1.118.454 1.968zm2.456 3.41c0 .664.072 1.16.215 1.49s.379.489.705.489.566-.161.721-.483.233-.824.233-1.496c0-.663-.078-1.154-.233-1.472s-.396-.483-.721-.483-.561.161-.705.483-.215.809-.215 1.472zm2.671 0c0 .881-.149 1.548-.448 2.002s-.729.676-1.303.676a1.43 1.43 0 0 1-1.275-.693c-.295-.462-.442-1.123-.442-1.985 0-.881.143-1.544.43-1.99s.72-.67 1.287-.67a1.46 1.46 0 0 1 1.286.687c.31.454.465 1.112.465 1.973zm-1.501-5.948l-4.72 8.509h-.856l4.72-8.509h.856z" class="B"/><rect x="82.922" y="184.695" width="11.777" height="54.174" rx="5.888" transform="rotate(90 82.922 184.695)" class="C"/><rect x="351.115" y="184.922" width="11.324" height="253.889" rx="5.662" transform="rotate(90 351.115 184.922)" fill="#65e4a3"/><path d="M367.078 194.75l3.527-7.618h-4.639v-.891h5.663v.774l-3.481 7.735h-1.07zm8.404-5.197c.896 0 1.6.223 2.113.669s.774 1.05.774 1.822c0 .881-.282 1.571-.844 2.072s-1.331.751-2.317.751c-.958 0-1.69-.154-2.194-.46v-.932c.272.175.609.313 1.013.414s.801.145 1.193.145c.683 0 1.212-.161 1.589-.483s.57-.788.57-1.397c0-1.187-.727-1.781-2.182-1.781-.369 0-.862.057-1.479.169l-.5-.32.32-3.981h4.231v.891h-3.405l-.215 2.555a6.72 6.72 0 0 1 1.333-.134zm4.988-.774c0 .659.071 1.154.215 1.484s.376.494.698.494c.637 0 .955-.659.955-1.978 0-1.312-.318-1.968-.955-1.968-.322 0-.554.163-.698.489s-.215.819-.215 1.479zm2.665 0c0 .884-.149 1.554-.448 2.008s-.729.675-1.304.675a1.43 1.43 0 0 1-1.268-.693c-.299-.462-.448-1.125-.448-1.99 0-.881.143-1.545.43-1.991s.72-.669 1.286-.669a1.46 1.46 0 0 1 1.298.692c.303.462.454 1.118.454 1.968zm2.456 3.41c0 .664.072 1.16.216 1.49s.378.489.704.489.567-.161.722-.483.233-.825.233-1.496c0-.663-.078-1.154-.233-1.472s-.396-.483-.722-.483-.561.161-.704.483-.216.809-.216 1.472zm2.672 0c0 .881-.15 1.548-.448 2.002s-.73.676-1.304.676a1.43 1.43 0 0 1-1.275-.693c-.294-.462-.442-1.123-.442-1.985 0-.881.144-1.544.431-1.99s.72-.67 1.286-.67a1.46 1.46 0 0 1 1.286.687c.311.454.466 1.112.466 1.973zm-1.502-5.948l-4.72 8.509h-.855l4.72-8.509h.855z" class="B"/><circle cx="18.985" cy="18.843" r="4.711" class="E"/><circle cx="37.828" cy="18.843" r="4.711" class="F"/><circle cx="56.671" cy="18.843" r="4.711" class="G"/></g></g><g filter="url(#E)" class="B"><rect x="1.216" y="257.665" width="192.175" height="165.335" rx="15.031" fill-opacity=".18"/></g><ellipse cx="22.113" cy="275.6" rx="4.72" ry="4.758" class="E"/><ellipse cx="40.993" cy="275.6" rx="4.72" ry="4.758" class="F"/><ellipse cx="59.873" cy="275.6" rx="4.72" ry="4.758" class="G"/><g class="H"><rect width="9.305" height="23.267" rx="4.652" transform="matrix(1 0 0 -1 25.9086 402.528)"/><rect width="9.305" height="13.484" rx="4.652" transform="matrix(1 0 0 -1 44.5178 392.745)"/><rect x="63.127" y="316.864" width="9.305" height="62.397" rx="4.652"/><rect x="81.736" y="336.165" width="9.305" height="43.096" rx="4.652"/></g><rect x="100.345" y="296.241" width="9.305" height="83.02" rx="4.652" class="C"/><g class="H"><rect x="118.954" y="320.565" width="9.305" height="58.696" rx="4.652"/><rect x="137.563" y="309.196" width="9.305" height="70.065" rx="4.652"/><rect x="156.173" y="347.269" width="9.305" height="31.992" rx="4.652"/></g></g><defs><filter id="C" x="98.914" y="124.538" width="528.213" height="431.589" filterUnits="userSpaceOnUse" class="I"><feFlood class="J"/><feGaussianBlur stdDeviation="66.564"/><feComposite in2="SourceAlpha" operator="in"/><feBlend in="SourceGraphic"/></filter><filter id="D" x="-68.569" y="-68.711" width="631.279" height="369.32" filterUnits="userSpaceOnUse" class="I"><feFlood class="J"/><feGaussianBlur stdDeviation="34.355"/><feComposite in2="SourceAlpha" operator="in"/><feBlend in="SourceGraphic"/></filter><filter id="E" x="-67.495" y="188.954" width="329.596" height="302.756" filterUnits="userSpaceOnUse" class="I"><feFlood class="J"/><feGaussianBlur stdDeviation="34.355"/><feComposite in2="SourceAlpha" operator="in"/><feBlend in="SourceGraphic"/></filter><clipPath id="F"><path transform="translate(.142)" d="M0 0h493.858v423H0z" class="B"/></clipPath><clipPath id="G"><path transform="translate(260.305 304.773)" d="M0 0h93.038v93.038H0z" class="B"/></clipPath><clipPath id="H"><rect x=".142" width="493.858" height="231.898" rx="15.031" class="B"/></clipPath></defs></svg>