<svg xmlns="http://www.w3.org/2000/svg" width="288" height="76" fill="#fff" xmlns:v="https://vecta.io/nano"><path d="M71.04 66V14.16h20.556c3.504 0 6.372.708 8.604 2.124 2.256 1.392 3.924 3.18 5.004 5.364 1.104 2.184 1.656 4.44 1.656 6.768 0 2.856-.684 5.28-2.052 7.272-1.344 1.992-3.18 3.336-5.508 4.032v-1.8c3.264.744 5.736 2.292 7.416 4.644 1.704 2.352 2.556 5.028 2.556 8.028 0 3.072-.588 5.76-1.764 8.064s-2.928 4.104-5.256 5.4C99.948 65.352 97.092 66 93.684 66H71.04zm8.784-8.172h12.78c1.512 0 2.868-.3 4.068-.9 1.2-.624 2.136-1.488 2.808-2.592.696-1.128 1.044-2.46 1.044-3.996 0-1.392-.3-2.64-.9-3.744s-1.476-1.98-2.628-2.628c-1.152-.672-2.532-1.008-4.14-1.008H79.824v14.868zm0-22.968h11.664c1.248 0 2.364-.24 3.348-.72s1.764-1.188 2.34-2.124.864-2.088.864-3.456c0-1.8-.576-3.3-1.728-4.5s-2.76-1.8-4.824-1.8H79.824v12.6zm53.81 32.22c-3.888 0-7.284-.876-10.188-2.628s-5.16-4.164-6.768-7.236c-1.584-3.096-2.376-6.648-2.376-10.656 0-4.08.816-7.656 2.448-10.728s3.9-5.472 6.804-7.2 6.264-2.592 10.08-2.592c3.912 0 7.32.876 10.224 2.628s5.16 4.176 6.768 7.272c1.608 3.072 2.412 6.612 2.412 10.62 0 4.032-.816 7.596-2.448 10.692-1.608 3.072-3.864 5.484-6.768 7.236-2.904 1.728-6.3 2.592-10.188 2.592zm0-8.136c3.456 0 6.024-1.152 7.704-3.456s2.52-5.28 2.52-8.928c0-3.768-.852-6.768-2.556-9-1.704-2.256-4.26-3.384-7.668-3.384-2.328 0-4.248.528-5.76 1.584-1.488 1.032-2.592 2.484-3.312 4.356-.72 1.848-1.08 3.996-1.08 6.444 0 3.768.852 6.78 2.556 9.036 1.728 2.232 4.26 3.348 7.596 3.348zM161.69 66V13.08h8.676V66h-8.676zm35.047 1.08c-3.576 0-6.696-.9-9.36-2.7s-4.728-4.248-6.192-7.344-2.196-6.588-2.196-10.476c0-3.936.732-7.44 2.196-10.512 1.488-3.096 3.588-5.532 6.3-7.308 2.712-1.8 5.904-2.7 9.576-2.7 3.696 0 6.792.9 9.288 2.7 2.52 1.776 4.428 4.212 5.724 7.308s1.944 6.6 1.944 10.512c0 3.864-.648 7.356-1.944 10.476-1.296 3.096-3.228 5.544-5.796 7.344s-5.748 2.7-9.54 2.7zm1.332-7.776c2.328 0 4.2-.528 5.616-1.584 1.44-1.08 2.484-2.58 3.132-4.5.672-1.92 1.008-4.14 1.008-6.66 0-2.544-.336-4.764-1.008-6.66-.648-1.92-1.668-3.408-3.06-4.464-1.392-1.08-3.192-1.62-5.4-1.62-2.328 0-4.248.576-5.76 1.728-1.512 1.128-2.628 2.664-3.348 4.608-.72 1.92-1.08 4.056-1.08 6.408 0 2.376.348 4.536 1.044 6.48.72 1.92 1.812 3.444 3.276 4.572s3.324 1.692 5.58 1.692zM207.825 66V38.712h-1.08V14.16h8.748V66h-7.668zm34.934 1.08c-3.888 0-7.284-.876-10.188-2.628s-5.16-4.164-6.768-7.236c-1.584-3.096-2.376-6.648-2.376-10.656 0-4.08.816-7.656 2.448-10.728s3.9-5.472 6.804-7.2 6.264-2.592 10.08-2.592c3.912 0 7.32.876 10.224 2.628s5.16 4.176 6.768 7.272c1.608 3.072 2.412 6.612 2.412 10.62 0 4.032-.816 7.596-2.448 10.692-1.608 3.072-3.864 5.484-6.768 7.236-2.904 1.728-6.3 2.592-10.188 2.592zm0-8.136c3.456 0 6.024-1.152 7.704-3.456s2.52-5.28 2.52-8.928c0-3.768-.852-6.768-2.556-9-1.704-2.256-4.26-3.384-7.668-3.384-2.328 0-4.248.528-5.76 1.584-1.488 1.032-2.592 2.484-3.312 4.356-.72 1.848-1.08 3.996-1.08 6.444 0 3.768.852 6.78 2.556 9.036 1.728 2.232 4.26 3.348 7.596 3.348zM0 38h30c8.837 0 16 7.163 16 16s-7.163 16-16 16H0V38zm0-28h20c6.627 0 12 5.373 12 12s-5.373 12-12 12H0V10z"/></svg>