<svg xmlns="http://www.w3.org/2000/svg" width="156" height="41" fill="#0a2640" xmlns:v="https://vecta.io/nano"><path d="M38.778 37V5.86h12.348c2.105 0 3.828.425 5.168 1.276 1.355.836 2.357 1.91 3.006 3.222.663 1.312.995 2.667.995 4.066 0 1.716-.411 3.172-1.233 4.368a5.91 5.91 0 0 1-3.309 2.422v-1.081c1.961.447 3.446 1.377 4.455 2.79 1.024 1.413 1.535 3.02 1.535 4.822 0 1.845-.353 3.46-1.06 4.844s-1.759 2.465-3.157 3.244c-1.384.779-3.1 1.168-5.147 1.168H38.778zm5.276-4.909h7.677c.908 0 1.723-.18 2.444-.541.721-.375 1.283-.894 1.687-1.557.418-.678.627-1.478.627-2.4 0-.836-.18-1.586-.541-2.249a3.96 3.96 0 0 0-1.579-1.579c-.692-.404-1.521-.605-2.487-.605h-7.828v8.931zm0-13.797h7.006c.75 0 1.42-.144 2.011-.433s1.06-.714 1.406-1.276.519-1.254.519-2.076c0-1.081-.346-1.982-1.038-2.703s-1.658-1.081-2.898-1.081h-7.006v7.569zm32.323 19.354c-2.336 0-4.376-.526-6.12-1.579s-3.1-2.501-4.065-4.347c-.952-1.86-1.427-3.993-1.427-6.401 0-2.451.49-4.599 1.471-6.444s2.343-3.287 4.087-4.325 3.763-1.557 6.055-1.557c2.35 0 4.397.526 6.141 1.579s3.1 2.509 4.066 4.368c.966 1.845 1.449 3.972 1.449 6.379 0 2.422-.49 4.563-1.47 6.423a10.85 10.85 0 0 1-4.065 4.347c-1.744 1.038-3.784 1.557-6.12 1.557zm0-4.887c2.076 0 3.619-.692 4.628-2.076s1.514-3.172 1.514-5.363c0-2.263-.512-4.065-1.535-5.406-1.024-1.355-2.559-2.033-4.606-2.033-1.398 0-2.552.317-3.46.951-.894.62-1.557 1.492-1.989 2.617-.433 1.11-.649 2.4-.649 3.871 0 2.263.512 4.073 1.535 5.428 1.038 1.341 2.559 2.011 4.563 2.011zM93.23 37V5.211h5.212V37H93.23zm21.053.649c-2.148 0-4.022-.541-5.622-1.622s-2.84-2.552-3.72-4.411-1.319-3.957-1.319-6.293c0-2.364.44-4.469 1.319-6.315.894-1.86 2.156-3.323 3.785-4.39 1.629-1.081 3.546-1.622 5.752-1.622 2.22 0 4.08.541 5.579 1.622 1.514 1.067 2.66 2.53 3.438 4.39s1.168 3.965 1.168 6.315c0 2.321-.389 4.419-1.168 6.293-.778 1.86-1.939 3.33-3.481 4.411s-3.453 1.622-5.731 1.622zm.8-4.671c1.399 0 2.523-.317 3.374-.951.865-.649 1.492-1.55 1.881-2.703.404-1.153.606-2.487.606-4.001 0-1.528-.202-2.862-.606-4.001-.389-1.153-1.002-2.047-1.838-2.681-.836-.649-1.917-.973-3.244-.973-1.398 0-2.551.346-3.46 1.038-.908.678-1.578 1.6-2.011 2.768-.432 1.153-.649 2.437-.649 3.849 0 1.427.21 2.725.628 3.892.432 1.153 1.088 2.069 1.967 2.746s1.997 1.016 3.352 1.016zM120.944 37V20.608h-.649V5.86h5.255V37h-4.606zm20.984.649c-2.335 0-4.375-.526-6.12-1.579s-3.099-2.501-4.065-4.347c-.952-1.86-1.428-3.993-1.428-6.401 0-2.451.491-4.599 1.471-6.444s2.343-3.287 4.087-4.325 3.763-1.557 6.055-1.557c2.35 0 4.397.526 6.142 1.579s3.099 2.509 4.065 4.368c.966 1.845 1.449 3.972 1.449 6.379 0 2.422-.49 4.563-1.471 6.423-.965 1.845-2.321 3.294-4.065 4.347-1.744 1.038-3.784 1.557-6.12 1.557zm0-4.887c2.076 0 3.619-.692 4.628-2.076s1.514-3.172 1.514-5.363c0-2.263-.512-4.065-1.536-5.406-1.023-1.355-2.559-2.033-4.606-2.033-1.398 0-2.552.317-3.46.951-.894.62-1.557 1.492-1.989 2.617-.433 1.11-.649 2.4-.649 3.871 0 2.263.512 4.073 1.535 5.428 1.038 1.341 2.559 2.011 4.563 2.011zM0 20.5h16.285c4.767 0 8.632 3.864 8.632 8.632s-3.864 8.632-8.632 8.632H0V20.5zM0 5.395h10.86c3.575 0 6.474 2.898 6.474 6.474s-2.898 6.474-6.474 6.474H0V5.395z"/></svg>