<svg xmlns="http://www.w3.org/2000/svg" width="148" height="37" fill="none" xmlns:v="https://vecta.io/nano"><g clip-path="url(#A)" fill="#fff"><g clip-path="url(#B)"><path d="M10.082 2.693a.62.62 0 0 1 .077-.683.62.62 0 0 1 .189-.151 14.97 14.97 0 0 1 14.225.354c.071.041.133.095.182.16a.64.64 0 0 1 .107.217.62.62 0 0 1-.064.471l-7.121 12.221a.61.61 0 0 1-.226.225.62.62 0 0 1-.308.082h-.016a.62.62 0 0 1-.535-.335l-6.51-12.561zm6.677 16.156v-.001L10.251 6.285a.62.62 0 0 0-.833-.266c-1.735.89-3.277 2.113-4.538 3.6s-2.215 3.208-2.809 5.065a14.8 14.8 0 0 0-.651 5.755c.164 1.942.71 3.834 1.607 5.565s2.126 3.268 3.619 4.523a14.8 14.8 0 0 0 5.077 2.788 14.81 14.81 0 0 0 5.758.627 14.8 14.8 0 0 0 5.558-1.63.62.62 0 0 0 .264-.834l-6.543-12.63zm7.63 11.874l.049.099a.63.63 0 0 0 .359.31.53.53 0 0 0 .198.025c.098-.003.195-.024.285-.062a6.86 6.86 0 0 0 .656-.372 13.99 13.99 0 0 0 1.796-1.239h-3.988l.644 1.239zm-1.288-2.477h5.983c.385-.386.741-.8 1.065-1.239h-7.692l.644 1.239zm-1.276-2.477h9.203a10.86 10.86 0 0 0 .681-1.239H21.182l.644 1.239zm-1.288-2.477h11.718a11.22 11.22 0 0 0 .421-1.239H19.893l.644 1.239zm-1.288-2.477h13.736l.173-1.239h-14.54l.632 1.239zm6.639-15.656a.59.59 0 0 0-.229-.082c-.081-.011-.164-.004-.242.02a.59.59 0 0 0-.222.102c-.066.049-.121.111-.162.183l-.334.57h2.391a13.42 13.42 0 0 0-1.201-.793zm2.7 2.031H23.98l-.718 1.239h6.503a13.77 13.77 0 0 0-1.177-1.239zm2.106 2.477h-8.163l-.718 1.239h9.637c-.223-.43-.476-.843-.755-1.239zm1.35 2.477h-10.95l-.718 1.239h12.151a11.64 11.64 0 0 0-.483-1.239zm.83 2.477H19.646l-.718 1.239h14.17a10.38 10.38 0 0 0-.223-1.239zm.347 2.477H18.209l-.297.508a.59.59 0 0 0-.085.296.6.6 0 0 0 .073.299l.074.136h15.273c.012-.124.012-.26.012-.384l-.037-.855z"/><path d="M9.798 5.407c-.227-.43-.761-.597-1.178-.346a15.71 15.71 0 0 0-5.794 20.79 15.71 15.71 0 0 0 20.433 6.95c.442-.203.606-.738.379-1.168l-6.92-13.113-6.92-13.113z"/></g><path d="M55.359 6.487c2.55 0 4.537.616 5.961 1.849 1.445 1.211 2.168 2.933 2.168 5.164s-.723 3.964-2.168 5.196c-1.424 1.211-3.411 1.817-5.961 1.817h-4.176v7.013H45.7V6.487h9.659zm-.861 9.914c2.317 0 3.475-.967 3.475-2.901s-1.158-2.901-3.475-2.901h-3.315v5.802h3.315zm12.113 11.126V11.588h4.782l.223 3.443c.383-1.169.967-2.083 1.753-2.742.808-.68 1.838-1.02 3.092-1.02.404 0 .744.042 1.02.127.298.064.531.138.701.223l-.542 4.463c-.213-.064-.489-.127-.829-.191-.319-.064-.712-.096-1.18-.096-.978 0-1.828.308-2.55.924-.701.616-1.052 1.541-1.052 2.773v8.034H66.61zm21.29.319c-2.657 0-4.761-.723-6.312-2.168-1.53-1.445-2.295-3.485-2.295-6.121 0-1.743.351-3.23 1.052-4.463.723-1.254 1.7-2.2 2.933-2.837 1.254-.659 2.71-.988 4.367-.988 1.679 0 3.103.329 4.272.988 1.19.638 2.093 1.53 2.71 2.678.616 1.126.924 2.423.924 3.889a10.68 10.68 0 0 1-.064 1.179l-.064.925H84.553c.149 1.105.51 1.902 1.084 2.391.574.468 1.328.701 2.263.701.808 0 1.445-.159 1.913-.478.489-.319.85-.765 1.084-1.339l4.335 1.435a5.09 5.09 0 0 1-1.562 2.327c-.723.616-1.594 1.084-2.614 1.403-.999.319-2.051.478-3.156.478zm-.255-12.783c-1.722 0-2.742.988-3.06 2.965h5.834c-.234-1.977-1.158-2.965-2.773-2.965zm17.632 12.783c-1.593 0-3.071-.255-4.431-.765-1.36-.531-2.497-1.286-3.411-2.263l2.55-2.997c.531.68 1.232 1.254 2.104 1.721.892.446 1.88.669 2.964.669.659 0 1.201-.096 1.626-.287s.638-.489.638-.893a.91.91 0 0 0-.319-.701c-.213-.191-.638-.351-1.275-.478l-2.232-.446c-1.997-.404-3.421-.999-4.272-1.785-.829-.807-1.243-1.86-1.243-3.156 0-.871.266-1.7.797-2.487s1.35-1.434 2.455-1.945 2.518-.765 4.24-.765c3.294 0 5.695.914 7.204 2.742l-2.582 2.933c-.51-.638-1.169-1.137-1.976-1.498s-1.616-.542-2.423-.542c-1.552 0-2.327.393-2.327 1.179 0 .276.127.521.382.733.277.212.776.383 1.499.51l2.901.574c1.636.319 2.816.871 3.538 1.658.723.765 1.084 1.7 1.084 2.805 0 1.552-.627 2.858-1.881 3.921-1.233 1.041-3.103 1.562-5.611 1.562zm21.716-16.258v3.857h-4.75v6.408c0 .765.181 1.318.542 1.658.383.319.904.478 1.562.478.511 0 .946-.053 1.307-.159.362-.128.702-.308 1.021-.542l.573 3.347c-.531.361-1.211.659-2.04.893-.807.212-1.626.319-2.454.319-1.828 0-3.273-.383-4.336-1.148-1.041-.786-1.573-2.104-1.594-3.953v-7.3h-2.742v-3.857h2.742v-3.57l5.419-1.498v5.069h4.75zm10.091-.319c1.679 0 3.145.329 4.399.988 1.275.659 2.263 1.604 2.965 2.837.722 1.233 1.084 2.72 1.084 4.463s-.362 3.23-1.084 4.463c-.702 1.233-1.69 2.178-2.965 2.837-1.254.659-2.72.988-4.399.988-1.658 0-3.124-.329-4.399-.988a7.32 7.32 0 0 1-2.965-2.837c-.702-1.233-1.052-2.72-1.052-4.463s.35-3.23 1.052-4.463a7.32 7.32 0 0 1 2.965-2.837c1.275-.659 2.741-.988 4.399-.988zm0 3.857c-.935 0-1.669.351-2.2 1.052-.51.68-.765 1.806-.765 3.379 0 1.551.255 2.678.765 3.379.531.701 1.265 1.052 2.2 1.052.956 0 1.689-.351 2.199-1.052.532-.701.797-1.828.797-3.379 0-1.573-.265-2.699-.797-3.379-.51-.701-1.243-1.052-2.199-1.052z"/></g><defs><clipPath id="A"><path fill="#fff" transform="translate(.922 -4.473)" d="M0 0h146.513v41.29H0z"/></clipPath><clipPath id="B"><path fill="#fff" transform="translate(.731 -.319)" d="M0 0h32.745v34.835H0z"/></clipPath></defs></svg>